OxygenSans-Bold-FF.ufo
<glyph name="quotesingle" format="1">
  <advance width="514"/>
  <unicode hex="0027"/>
  <outline>
    <contour>
      <point x="184" y="833" type="line"/>
      <point x="152" y="1341" type="line"/>
      <point x="362" y="1341" type="line"/>
      <point x="337" y="833" type="line"/>
    </contour>
  </outline>
</glyph>
<glyph name="greater" format="1">
  <advance width="1049"/>
  <unicode hex="003E"/>
  <outline>
    <contour>
      <point x="100" y="1158" type="line"/>
      <point x="973" y="709" type="line"/>
      <point x="973" y="588" type="line"/>
      <point x="100" y="171" type="line"/>
      <point x="100" y="386" type="line"/>
      <point x="704" y="654" type="line"/>
      <point x="100" y="953" type="line"/>
    </contour>
  </outline>
</glyph>
<glyph name="M" format="1">
  <advance width="1632"/>
  <unicode hex="004D"/>
  <outline>
    <contour>
      <point x="1207" y="1336" type="line"/>
      <point x="1488" y="1336" type="line"/>
      <point x="1488" y="0" type="line"/>
      <point x="1222" y="0" type="line"/>
      <point x="1222" y="487" type="line"/>
      <point x="1237" y="880" type="line"/>
      <point x="912" y="136" type="line"/>
      <point x="711" y="136" type="line"/>
      <point x="395" y="886" type="line"/>
      <point x="410" y="484" type="line"/>
      <point x="410" y="0" type="line"/>
      <point x="144" y="0" type="line"/>
      <point x="144" y="1336" type="line"/>
      <point x="430" y="1336" type="line"/>
      <point x="816" y="421" type="line"/>
    </contour>
  </outline>
</glyph>
<glyph name="R" format="1">
  <advance width="1294"/>
  <unicode hex="0052"/>
  <outline>
    <contour>
      <point x="666" y="742" type="line" smooth="yes"/>
      <point x="847" y="742"/>
      <point x="912" y="804"/>
      <point x="912" y="943" type="curve" smooth="yes"/>
      <point x="912" y="1064"/>
      <point x="840" y="1126"/>
      <point x="676" y="1126" type="curve" smooth="yes"/>
      <point x="432" y="1126" type="line"/>
      <point x="432" y="742" type="line"/>
    </contour>
    <contour>
      <point x="144" y="0" type="line"/>
      <point x="144" y="1336" type="line"/>
      <point x="663" y="1336" type="line" smooth="yes"/>
      <point x="969" y="1336"/>
      <point x="1200" y="1258"/>
      <point x="1200" y="947" type="curve" smooth="yes"/>
      <point x="1200" y="770"/>
      <point x="1090" y="646"/>
      <point x="943" y="587" type="curve"/>
      <point x="980" y="539"/>
      <point x="1017" y="465"/>
      <point x="1053" y="391" type="curve" smooth="yes"/>
      <point x="1250" y="0" type="line"/>
      <point x="947" y="0" type="line"/>
      <point x="784" y="331" type="line"/>
      <point x="754" y="395"/>
      <point x="699" y="501"/>
      <point x="684" y="530" type="curve"/>
      <point x="667" y="531"/>
      <point x="645" y="531"/>
      <point x="612" y="531" type="curve" smooth="yes"/>
      <point x="432" y="531" type="line"/>
      <point x="432" y="0" type="line"/>
    </contour>
    <contour>
      <point x="641" y="1342" type="move" name="top"/>
    </contour>
    <contour>
      <point x="641" y="0" type="move" name="bottom"/>
    </contour>
  </outline>
</glyph>
<glyph name="W" format="1">
  <advance width="1868"/>
  <unicode hex="0057"/>
  <outline>
    <contour>
      <point x="805" y="1330" type="line"/>
      <point x="1064" y="1330" type="line"/>
      <point x="1330" y="373" type="line"/>
      <point x="1574" y="1336" type="line"/>
      <point x="1855" y="1336" type="line"/>
      <point x="1472" y="0" type="line"/>
      <point x="1200" y="0" type="line"/>
      <point x="935" y="963" type="line"/>
      <point x="649" y="0" type="line"/>
      <point x="379" y="0" type="line"/>
      <point x="13" y="1336" type="line"/>
      <point x="295" y="1336" type="line"/>
      <point x="526" y="376" type="line"/>
    </contour>
    <contour>
      <point x="934" y="1342" type="move" name="top"/>
    </contour>
  </outline>
</glyph>
<glyph name="X" format="1">
  <advance width="1236"/>
  <unicode hex="0058"/>
  <outline>
    <contour>
      <point x="778" y="682" type="line"/>
      <point x="1214" y="1336" type="line"/>
      <point x="923" y="1336" type="line"/>
      <point x="626" y="880" type="line"/>
      <point x="337" y="1336" type="line"/>
      <point x="32" y="1336" type="line"/>
      <point x="459" y="687" type="line"/>
      <point x="0" y="0" type="line"/>
      <point x="296" y="0" type="line"/>
      <point x="614" y="456" type="line"/>
      <point x="924" y="0" type="line"/>
      <point x="1236" y="0" type="line"/>
    </contour>
  </outline>
</glyph>
<glyph name="Y" format="1">
  <advance width="1145"/>
  <unicode hex="0059"/>
  <outline>
    <contour>
      <point x="572" y="749" type="line"/>
      <point x="859" y="1336" type="line"/>
      <point x="1157" y="1336" type="line"/>
      <point x="713" y="499" type="line"/>
      <point x="713" y="0" type="line"/>
      <point x="431" y="0" type="line"/>
      <point x="431" y="495" type="line"/>
      <point x="-12" y="1336" type="line"/>
      <point x="291" y="1336" type="line"/>
    </contour>
    <contour>
      <point x="573" y="1342" type="move" name="top"/>
    </contour>
  </outline>
</glyph>
<glyph name="bracketright" format="1">
  <advance width="703"/>
  <unicode hex="005D"/>
  <outline>
    <contour>
      <point x="96" y="1200" type="line"/>
      <point x="96" y="1380" type="line"/>
      <point x="529" y="1380" type="line"/>
      <point x="529" y="-237" type="line"/>
      <point x="96" y="-237" type="line"/>
      <point x="96" y="-56" type="line"/>
      <point x="283" y="-56" type="line"/>
      <point x="283" y="1200" type="line"/>
    </contour>
  </outline>
</glyph>
<glyph name="b" format="1">
  <advance width="1145"/>
  <unicode hex="0062"/>
  <outline>
    <contour>
      <point x="658" y="-18" type="curve" smooth="yes"/>
      <point x="911" y="-18"/>
      <point x="1069" y="202"/>
      <point x="1069" y="519" type="curve" smooth="yes"/>
      <point x="1069" y="819"/>
      <point x="921" y="1041"/>
      <point x="662" y="1041" type="curve" smooth="yes"/>
      <point x="518" y="1041"/>
      <point x="429" y="969"/>
      <point x="378" y="908" type="curve"/>
      <point x="380" y="974"/>
      <point x="384" y="1028"/>
      <point x="384" y="1079" type="curve" smooth="yes"/>
      <point x="384" y="1393" type="line"/>
      <point x="128" y="1376" type="line"/>
      <point x="128" y="1" type="line"/>
      <point x="349" y="1" type="line"/>
      <point x="369" y="127" type="line"/>
      <point x="423" y="50"/>
      <point x="525" y="-18"/>
    </contour>
    <contour>
      <point x="601" y="179" type="curve" smooth="yes"/>
      <point x="459" y="179"/>
      <point x="379" y="277"/>
      <point x="379" y="527" type="curve"/>
      <point x="381" y="757"/>
      <point x="469" y="845"/>
      <point x="604" y="845" type="curve" smooth="yes"/>
      <point x="729" y="845"/>
      <point x="813" y="744"/>
      <point x="813" y="516" type="curve" smooth="yes"/>
      <point x="813" y="290"/>
      <point x="726" y="179"/>
    </contour>
  </outline>
</glyph>
<glyph name="m" format="1">
  <advance width="1746"/>
  <unicode hex="006D"/>
  <outline>
    <contour>
      <point x="384" y="494" type="line" smooth="yes"/>
      <point x="384" y="581"/>
      <point x="391" y="656"/>
      <point x="404" y="713" type="curve"/>
      <point x="439" y="789"/>
      <point x="503" y="844"/>
      <point x="601" y="844" type="curve" smooth="yes"/>
      <point x="718" y="844"/>
      <point x="750" y="754"/>
      <point x="750" y="590" type="curve" smooth="yes"/>
      <point x="750" y="0" type="line"/>
      <point x="1006" y="0" type="line"/>
      <point x="1006" y="596" type="line"/>
      <point x="1012" y="647"/>
      <point x="1019" y="690"/>
      <point x="1035" y="727" type="curve"/>
      <point x="1071" y="802"/>
      <point x="1133" y="844"/>
      <point x="1219" y="844" type="curve" smooth="yes"/>
      <point x="1334" y="844"/>
      <point x="1376" y="762"/>
      <point x="1376" y="579" type="curve" smooth="yes"/>
      <point x="1376" y="0" type="line"/>
      <point x="1632" y="0" type="line"/>
      <point x="1632" y="646" type="line" smooth="yes"/>
      <point x="1632" y="897"/>
      <point x="1513" y="1041"/>
      <point x="1279" y="1041" type="curve" smooth="yes"/>
      <point x="1145" y="1041"/>
      <point x="1034" y="986"/>
      <point x="962" y="892" type="curve"/>
      <point x="924" y="962"/>
      <point x="841" y="1041"/>
      <point x="678" y="1041" type="curve" smooth="yes"/>
      <point x="499" y="1041"/>
      <point x="410" y="962"/>
      <point x="360" y="903" type="curve"/>
      <point x="336" y="1016" type="line"/>
      <point x="128" y="1016" type="line"/>
      <point x="128" y="0" type="line"/>
      <point x="384" y="0" type="line"/>
    </contour>
  </outline>
</glyph>
<glyph name="o" format="1">
  <advance width="1112"/>
  <unicode hex="006F"/>
  <outline>
    <contour>
      <point x="556" y="-18" type="curve" smooth="yes"/>
      <point x="864" y="-18"/>
      <point x="1036" y="195"/>
      <point x="1036" y="512" type="curve" smooth="yes"/>
      <point x="1036" y="825"/>
      <point x="853" y="1041"/>
      <point x="556" y="1041" type="curve" smooth="yes"/>
      <point x="248" y="1041"/>
      <point x="76" y="833"/>
      <point x="76" y="512" type="curve" smooth="yes"/>
      <point x="76" y="200"/>
      <point x="261" y="-18"/>
    </contour>
    <contour>
      <point x="556" y="178" type="curve" smooth="yes"/>
      <point x="405" y="178"/>
      <point x="332" y="310"/>
      <point x="332" y="511" type="curve" smooth="yes"/>
      <point x="332" y="709"/>
      <point x="407" y="844"/>
      <point x="556" y="844" type="curve" smooth="yes"/>
      <point x="707" y="844"/>
      <point x="780" y="710"/>
      <point x="780" y="512" type="curve" smooth="yes"/>
      <point x="780" y="309"/>
      <point x="706" y="178"/>
    </contour>
    <contour>
      <point x="556" y="1016" type="move" name="top"/>
    </contour>
  </outline>
</glyph>
<glyph name="exclamdown" format="1">
  <advance width="386"/>
  <unicode hex="00A1"/>
  <outline>
    <contour>
      <point x="324" y="203" type="line"/>
      <point x="324" y="-4" type="line"/>
      <point x="89" y="-4" type="line"/>
      <point x="89" y="203" type="line"/>
      <point x="152" y="913" type="line"/>
      <point x="266" y="913" type="line"/>
    </contour>
    <contour>
      <point x="202" y="1046" type="curve" smooth="yes"/>
      <point x="118" y="1046"/>
      <point x="55" y="1114"/>
      <point x="55" y="1193" type="curve" smooth="yes"/>
      <point x="55" y="1273"/>
      <point x="119" y="1338"/>
      <point x="202" y="1338" type="curve" smooth="yes"/>
      <point x="285" y="1338"/>
      <point x="348" y="1272"/>
      <point x="348" y="1193" type="curve" smooth="yes"/>
      <point x="348" y="1114"/>
      <point x="285" y="1046"/>
    </contour>
  </outline>
</glyph>
<glyph name="uni01C7" format="1">
  <advance width="1493"/>
  <unicode hex="01C7"/>
  <outline>
    <contour>
      <point x="1509" y="213" type="line"/>
      <point x="1502" y="0" type="line"/>
      <point x="684" y="0" type="line"/>
      <point x="684" y="1342" type="line"/>
      <point x="972" y="1342" type="line"/>
      <point x="972" y="213" type="line"/>
    </contour>
    <contour>
      <point x="-26" y="-285" type="curve"/>
      <point x="-38" y="-75" type="line"/>
      <point x="1" y="-82"/>
      <point x="42" y="-84"/>
      <point x="65" y="-84" type="curve" smooth="yes"/>
      <point x="197" y="-84"/>
      <point x="224" y="-21"/>
      <point x="224" y="126" type="curve" smooth="yes"/>
      <point x="224" y="1342" type="line"/>
      <point x="512" y="1342" type="line"/>
      <point x="512" y="144" type="line" smooth="yes"/>
      <point x="512" y="-153"/>
      <point x="383" y="-293"/>
      <point x="67" y="-293" type="curve" smooth="yes"/>
      <point x="37" y="-293"/>
      <point x="5" y="-292"/>
    </contour>
  </outline>
</glyph>
<glyph name="uni01CC" format="1">
  <advance width="1561"/>
  <unicode hex="01CC"/>
  <outline>
    <contour>
      <point x="404" y="1139" type="line"/>
      <point x="151" y="1139" type="line"/>
      <point x="151" y="1357" type="line"/>
      <point x="404" y="1357" type="line"/>
    </contour>
    <contour>
      <point x="151" y="-4" type="curve" smooth="yes"/>
      <point x="151" y="1017" type="line"/>
      <point x="404" y="1017" type="line"/>
      <point x="404" y="40" type="line" smooth="yes"/>
      <point x="404" y="-240"/>
      <point x="342" y="-379"/>
      <point x="24" y="-379" type="curve" smooth="yes"/>
      <point x="-36" y="-379" type="line"/>
      <point x="-65" y="-187" type="line"/>
      <point x="-3" y="-187" type="line" smooth="yes"/>
      <point x="138" y="-187"/>
      <point x="151" y="-149"/>
    </contour>
    <contour>
      <point x="845" y="496" type="curve" smooth="yes"/>
      <point x="845" y="0" type="line"/>
      <point x="591" y="0" type="line"/>
      <point x="591" y="1017" type="line"/>
      <point x="797" y="1017" type="line"/>
      <point x="821" y="902" type="line"/>
      <point x="901" y="979"/>
      <point x="1001" y="1041"/>
      <point x="1142" y="1041" type="curve" smooth="yes"/>
      <point x="1377" y="1041"/>
      <point x="1490" y="891"/>
      <point x="1490" y="640" type="curve" smooth="yes"/>
      <point x="1490" y="0" type="line"/>
      <point x="1236" y="0" type="line"/>
      <point x="1236" y="612" type="line"/>
      <point x="1235" y="761"/>
      <point x="1203" y="844"/>
      <point x="1077" y="844" type="curve" smooth="yes"/>
      <point x="979" y="844"/>
      <point x="897" y="789"/>
      <point x="861" y="713" type="curve"/>
      <point x="848" y="656"/>
      <point x="845" y="582"/>
    </contour>
  </outline>
</glyph>
<glyph name="circumflex" format="1">
  <advance width="680"/>
  <unicode hex="02C6"/>
  <outline>
    <contour>
      <point x="31" y="1045" type="line"/>
      <point x="266" y="1413" type="line"/>
      <point x="462" y="1413" type="line"/>
      <point x="698" y="1045" type="line"/>
      <point x="512" y="1045" type="line"/>
      <point x="354" y="1239" type="line"/>
      <point x="212" y="1045" type="line"/>
    </contour>
    <contour>
      <point x="364.5" y="1016" type="move" name="_top"/>
    </contour>
  </outline>
</glyph>
<glyph name="uni0400" format="1">
  <advance width="1108"/>
  <unicode hex="0400"/>
  <outline>
    <contour>
      <point x="690" y="1452" type="line"/>
      <point x="525" y="1452" type="line"/>
      <point x="214" y="1813" type="line"/>
      <point x="513" y="1813" type="line"/>
    </contour>
  </outline>
</glyph>
<glyph name="afii10048" format="1">
  <advance width="1472"/>
  <unicode hex="042E"/>
  <outline>
    <contour>
      <point x="1175" y="-17" type="curve" smooth="yes"/>
      <point x="812" y="-17"/>
      <point x="612" y="253"/>
      <point x="580" y="587" type="curve"/>
      <point x="379" y="587" type="line"/>
      <point x="379" y="10" type="line"/>
      <point x="153" y="10" type="line"/>
      <point x="153" y="1331" type="line"/>
      <point x="379" y="1331" type="line"/>
      <point x="379" y="791" type="line"/>
      <point x="583" y="791" type="line"/>
      <point x="623" y="1113"/>
      <point x="822" y="1363"/>
      <point x="1173" y="1363" type="curve" smooth="yes"/>
      <point x="1561" y="1363"/>
      <point x="1764" y="1056"/>
      <point x="1764" y="670" type="curve" smooth="yes"/>
      <point x="1764" y="290"/>
      <point x="1562" y="-17"/>
    </contour>
    <contour>
      <point x="1174" y="187" type="curve" smooth="yes"/>
      <point x="1419" y="187"/>
      <point x="1524" y="406"/>
      <point x="1524" y="676" type="curve" smooth="yes"/>
      <point x="1524" y="941"/>
      <point x="1417" y="1160"/>
      <point x="1172" y="1160" type="curve" smooth="yes"/>
      <point x="930" y="1160"/>
      <point x="823" y="942"/>
      <point x="823" y="676" type="curve" smooth="yes"/>
      <point x="823" y="605"/>
      <point x="934" y="187"/>
    </contour>
  </outline>
</glyph>
<glyph name="afii10079" format="1">
  <advance width="1047"/>
  <unicode hex="043D"/>
  <outline>
    <contour>
      <point x="732" y="641" type="line"/>
      <point x="732" y="1016" type="line"/>
      <point x="978" y="1016" type="line"/>
      <point x="978" y="0" type="line"/>
      <point x="732" y="0" type="line"/>
      <point x="732" y="449" type="line"/>
      <point x="336" y="449" type="line"/>
      <point x="336" y="0" type="line"/>
      <point x="89" y="0" type="line"/>
      <point x="89" y="1016" type="line"/>
      <point x="336" y="1016" type="line"/>
      <point x="336" y="641" type="line"/>
    </contour>
  </outline>
</glyph>
<glyph name="afii10099" format="1">
  <advance width="974"/>
  <unicode hex="0452"/>
  <outline>
    <contour>
      <point x="539" y="-252" type="line"/>
      <point x="527" y="-106" type="line"/>
      <point x="574" y="-106" type="line" smooth="yes"/>
      <point x="721" y="-106"/>
      <point x="734" y="-86"/>
      <point x="734" y="104" type="curve" smooth="yes"/>
      <point x="734" y="340" type="line" smooth="yes"/>
      <point x="734" y="562"/>
      <point x="706" y="664"/>
      <point x="550" y="664" type="curve" smooth="yes"/>
      <point x="407" y="664"/>
      <point x="290" y="542"/>
      <point x="266" y="453" type="curve"/>
      <point x="266" y="0" type="line"/>
      <point x="96" y="0" type="line"/>
      <point x="96" y="995" type="line"/>
      <point x="13" y="995" type="line"/>
      <point x="13" y="1119" type="line"/>
      <point x="96" y="1119" type="line"/>
      <point x="96" y="1382" type="line"/>
      <point x="266" y="1382" type="line"/>
      <point x="266" y="1119" type="line"/>
      <point x="628" y="1119" type="line"/>
      <point x="628" y="994" type="line"/>
      <point x="266" y="994" type="line"/>
      <point x="266" y="682" type="line"/>
      <point x="340" y="770"/>
      <point x="439" y="824"/>
      <point x="564" y="824" type="curve" smooth="yes"/>
      <point x="798" y="824"/>
      <point x="902" y="676"/>
      <point x="902" y="414" type="curve" smooth="yes"/>
      <point x="902" y="155" type="line" smooth="yes"/>
      <point x="902" y="-120"/>
      <point x="879" y="-252"/>
      <point x="609" y="-252" type="curve" smooth="yes"/>
    </contour>
  </outline>
</glyph>
<glyph name="lessequal" format="1">
  <advance width="1074"/>
  <unicode hex="2264"/>
  <outline>
    <contour>
      <point x="970" y="982" type="line"/>
      <point x="369" y="681" type="line"/>
      <point x="970" y="394" type="line"/>
      <point x="970" y="194" type="line"/>
      <point x="123" y="623" type="line"/>
      <point x="123" y="738" type="line"/>
      <point x="970" y="1176" type="line"/>
    </contour>
    <contour>
      <point x="117" y="2" type="line"/>
      <point x="117" y="159" type="line"/>
      <point x="975" y="160" type="line"/>
      <point x="975" y="2" type="line"/>
    </contour>
  </outline>
</glyph>
